# 3ds Max Wavefront OBJ Exporter v0.97b - (c)2007 guruware
# File Created: 12.05.2019 14:10:33

#
# object cardboar_box_battom_007
#

v  16.8810 0.0000 14.6667
v  -16.8810 0.0000 14.6667
v  -16.8810 0.0000 -14.6667
v  16.8810 0.0000 -14.6667
v  16.8810 1.0000 15.6667
v  16.8810 14.5060 15.6667
v  -16.8810 14.5060 15.6667
v  -16.8810 1.0000 15.6667
v  17.4701 1.0000 -14.6667
v  17.4701 14.5060 -14.6667
v  17.4701 14.5060 14.6667
v  17.4701 1.0000 14.6667
v  -16.8810 1.0000 -15.6667
v  -16.8810 14.5060 -15.6667
v  16.8810 14.5060 -15.6667
v  16.8810 1.0000 -15.6667
v  -17.4701 1.0000 14.6667
v  -17.4701 14.5060 14.6667
v  -17.4701 14.5060 -14.6667
v  -17.4701 1.0000 -14.6667
v  -16.6603 0.4177 -14.5030
v  -16.6603 0.4177 14.5030
v  16.6603 0.4177 14.5030
v  16.6603 0.4177 -14.5030
v  -16.6329 14.5060 15.2326
v  16.6329 14.5060 15.2326
v  16.6603 1.1636 15.2489
v  -16.6603 1.1636 15.2489
v  16.9877 14.5060 14.5351
v  16.9877 14.5060 -14.5351
v  17.0015 1.1233 -14.5434
v  17.0015 1.1233 14.5434
v  16.6329 14.5060 -15.2326
v  -16.6329 14.5060 -15.2326
v  -16.6603 1.1636 -15.2489
v  16.6603 1.1636 -15.2489
v  -16.9877 14.5060 -14.5351
v  -16.9877 14.5060 14.5351
v  -17.0015 1.1233 14.5434
v  -17.0015 1.1233 -14.5434
# 40 vertices

vn 0.4414 -0.8355 0.3273
vn -0.4414 -0.8355 0.3273
vn -0.4414 -0.8355 -0.3273
vn 0.4414 -0.8355 -0.3273
vn 0.4414 -0.3273 0.8355
vn 0.3929 0.6106 0.6876
vn -0.3929 0.6106 0.6876
vn -0.4414 -0.3273 0.8355
vn 0.9372 -0.2466 -0.2466
vn 0.7312 0.6524 -0.1994
vn 0.7312 0.6524 0.1994
vn 0.9372 -0.2466 0.2466
vn -0.4414 -0.3273 -0.8355
vn -0.3929 0.6106 -0.6876
vn 0.3929 0.6106 -0.6876
vn 0.4414 -0.3273 -0.8355
vn -0.9372 -0.2466 0.2466
vn -0.7312 0.6524 0.1994
vn -0.7312 0.6524 -0.1994
vn -0.9372 -0.2466 -0.2466
vn 0.4702 0.8222 0.3208
vn 0.4702 0.8222 -0.3208
vn -0.4702 0.8222 -0.3208
vn -0.4702 0.8222 0.3208
vn 0.2793 0.8451 -0.4559
vn -0.2793 0.8451 -0.4559
vn -0.4706 0.3198 -0.8224
vn 0.4706 0.3198 -0.8224
vn -0.6284 0.7632 -0.1506
vn -0.6284 0.7632 0.1506
vn -0.9505 0.2195 0.2201
vn -0.9505 0.2195 -0.2201
vn -0.2793 0.8451 0.4559
vn 0.2793 0.8451 0.4559
vn 0.4706 0.3198 0.8224
vn -0.4706 0.3198 0.8224
vn 0.6284 0.7632 0.1506
vn 0.6284 0.7632 -0.1506
vn 0.9505 0.2195 -0.2201
vn 0.9505 0.2195 0.2201
# 40 vertex normals

vt 0.3711 0.0217 0.0000
vt 0.4993 0.0217 0.0000
vt 0.4993 0.1330 0.0000
vt 0.3711 0.1330 0.0000
vt 0.1735 0.0404 0.0000
vt 0.1735 0.0927 0.0000
vt 0.0454 0.0927 0.0000
vt 0.0454 0.0404 0.0000
vt 0.5564 0.0470 0.0000
vt 0.5564 0.0993 0.0000
vt 0.4451 0.0993 0.0000
vt 0.4451 0.0470 0.0000
vt 0.4414 0.0385 0.0000
vt 0.4414 0.0908 0.0000
vt 0.3132 0.0908 0.0000
vt 0.3132 0.0385 0.0000
vt 0.2975 0.0404 0.0000
vt 0.2975 0.0927 0.0000
vt 0.1862 0.0927 0.0000
vt 0.1862 0.0404 0.0000
vt 0.3020 0.0404 0.0000
vt 0.2987 0.0361 0.0000
vt 0.4439 0.0427 0.0000
vt 0.4407 0.0470 0.0000
vt 0.1851 0.0361 0.0000
vt 0.1818 0.0404 0.0000
vt 0.5608 0.0470 0.0000
vt 0.5575 0.0427 0.0000
vt 0.3132 0.0331 0.0000
vt 0.4414 0.0331 0.0000
vt 0.4451 0.0426 0.0000
vt 0.5564 0.0426 0.0000
vt 0.0454 0.0350 0.0000
vt 0.1735 0.0350 0.0000
vt 0.4407 0.0993 0.0000
vt 0.5608 0.0993 0.0000
vt 0.1818 0.0927 0.0000
vt 0.1862 0.0360 0.0000
vt 0.2975 0.0360 0.0000
vt 0.3020 0.0927 0.0000
vt 0.2901 0.2630 0.0000
vt 0.2901 0.3726 0.0000
vt 0.1643 0.3726 0.0000
vt 0.1643 0.2630 0.0000
vt 0.2900 0.4270 0.0000
vt 0.1644 0.4269 0.0000
vt 0.1643 0.3766 0.0000
vt 0.2901 0.3766 0.0000
vt 0.1109 0.3727 0.0000
vt 0.1110 0.2629 0.0000
vt 0.1614 0.2629 0.0000
vt 0.1614 0.3726 0.0000
vt 0.1644 0.2087 0.0000
vt 0.2900 0.2087 0.0000
vt 0.2901 0.2591 0.0000
vt 0.1643 0.2590 0.0000
vt 0.3435 0.2629 0.0000
vt 0.3435 0.3727 0.0000
vt 0.2930 0.3727 0.0000
vt 0.2930 0.2630 0.0000
vt 0.2930 0.3756 0.0000
vt 0.1614 0.3756 0.0000
vt 0.2930 0.2601 0.0000
vt 0.1614 0.2600 0.0000
vt 0.1110 0.3757 0.0000
vt 0.1110 0.2600 0.0000
vt 0.3435 0.2599 0.0000
vt 0.3435 0.3756 0.0000
# 68 texture coords

o cardboar_box_battom_007
g cardboar_box_battom_007
s 1
f 1/1/1 2/2/2 3/3/3 4/4/4 
f 5/5/5 6/6/6 7/7/7 8/8/8 
f 9/9/9 10/10/10 11/11/11 12/12/12 
f 13/13/13 14/14/14 15/15/15 16/16/16 
f 17/17/17 18/18/18 19/19/19 20/20/20 
f 8/21/8 17/17/17 2/22/2 
f 1/23/1 12/12/12 5/24/5 
f 3/25/3 20/20/20 13/26/13 
f 16/27/16 9/9/9 4/28/4 
f 16/16/16 4/29/4 3/30/3 13/13/13 
f 12/12/12 1/31/1 4/32/4 9/9/9 
f 8/8/8 2/33/2 1/34/1 5/5/5 
f 12/12/12 11/11/11 6/35/6 5/24/5 
f 16/27/16 15/36/15 10/10/10 9/9/9 
f 20/20/20 19/19/19 14/37/14 13/26/13 
f 20/20/20 3/38/3 2/39/2 17/17/17 
f 17/17/17 8/21/8 7/40/7 18/18/18 
f 21/41/21 22/42/22 23/43/23 24/44/24 
f 25/45/25 26/46/26 27/47/27 28/48/28 
f 29/49/29 30/50/30 31/51/31 32/52/32 
f 33/53/33 34/54/34 35/55/35 36/56/36 
f 37/57/37 38/58/38 39/59/39 40/60/40 
f 22/42/22 39/59/39 28/61/28 
f 27/62/27 32/52/32 23/43/23 
f 35/63/35 40/60/40 21/41/21 
f 24/44/24 31/51/31 36/64/36 
f 21/41/21 24/44/24 36/56/36 35/55/35 
f 24/44/24 23/43/23 32/52/32 31/51/31 
f 23/43/23 22/42/22 28/48/28 27/47/27 
f 26/65/26 29/49/29 32/52/32 27/62/27 
f 30/50/30 33/66/33 36/64/36 31/51/31 
f 34/67/34 37/57/37 40/60/40 35/63/35 
f 22/42/22 21/41/21 40/60/40 39/59/39 
f 25/68/25 28/61/28 39/59/39 38/58/38 
f 26/6/26 25/7/25 7/7/7 6/6/6 
f 30/10/30 29/11/29 11/11/11 10/10/10 
f 34/14/34 33/15/33 15/15/15 14/14/14 
f 38/18/38 37/19/37 19/19/19 18/18/18 
f 29/11/29 26/35/26 6/35/6 11/11/11 
f 33/36/33 30/10/30 10/10/10 15/36/15 
f 37/19/37 34/37/34 14/37/14 19/19/19 
f 25/40/25 38/18/38 18/18/18 7/40/7 
# 34 polygons - 8 triangles

#
# object cardboar_box_top_007
#

v  -17.1017 23.5603 -9.8851
v  17.1017 23.5603 -9.8851
v  17.1017 7.5887 -34.8783
v  -17.1017 7.5887 -34.8783
v  -17.1017 23.1789 -8.1530
v  -17.9387 22.4479 -9.2221
v  17.9387 22.4479 -9.2221
v  17.1017 23.1789 -8.1530
v  -17.9387 6.5197 -34.1473
v  -17.1017 5.8567 -35.2597
v  17.1017 5.8567 -35.2597
v  17.9387 6.5197 -34.1473
v  -17.1291 17.4796 -4.4916
v  -17.9525 16.7782 -5.5892
v  17.1291 17.4796 -4.4916
v  17.9525 16.7782 -5.5892
v  17.9525 0.8412 -30.5282
v  17.1291 0.1398 -31.6258
v  -17.1291 0.1398 -31.6258
v  -17.9525 0.8412 -30.5282
v  -16.8810 16.9817 -4.6885
v  16.8810 16.9817 -4.6885
v  17.4701 16.4432 -5.5311
v  17.4701 0.6478 -30.2486
v  16.8810 0.1093 -31.0912
v  -16.8810 0.1093 -31.0912
v  -17.4701 0.6478 -30.2486
v  -17.4701 16.4432 -5.5311
v  -16.8810 22.9005 -8.4709
v  16.8810 22.9005 -8.4709
v  17.4701 22.3620 -9.3135
v  17.4701 6.5667 -34.0309
v  16.8810 6.0282 -34.8736
v  -16.8810 6.0282 -34.8736
v  -17.4701 6.5667 -34.0309
v  -17.4701 22.3620 -9.3135
v  -16.5580 23.2114 -9.8564
v  -16.5580 7.4161 -34.5736
v  16.5580 7.4161 -34.5736
v  16.5580 23.2114 -9.8564
# 40 vertices

vn -0.4269 0.8873 -0.1745
vn 0.4270 0.8873 -0.1745
vn 0.4270 0.5311 -0.7319
vn -0.4269 0.5311 -0.7319
vn -0.4263 0.7333 0.5297
vn -0.9300 0.3592 0.0782
vn 0.9300 0.3592 0.0782
vn 0.4263 0.7333 0.5297
vn -0.9300 0.0799 -0.3589
vn -0.4263 -0.1727 -0.8879
vn 0.4263 -0.1727 -0.8879
vn 0.9300 0.0799 -0.3589
vn -0.4371 0.0650 0.8971
vn -0.8579 -0.2456 0.4512
vn 0.4371 0.0650 0.8971
vn 0.8579 -0.2456 0.4512
vn 0.8579 -0.5127 0.0334
vn 0.4372 -0.7868 -0.4358
vn -0.4372 -0.7868 -0.4358
vn -0.8579 -0.5127 0.0334
vn 0.1030 -0.9213 0.3750
vn -0.1030 -0.9213 0.3750
vn -0.3423 -0.8381 0.4248
vn -0.3423 -0.7375 0.5821
vn -0.1030 -0.7273 0.6786
vn 0.1030 -0.7273 0.6786
vn 0.3423 -0.7375 0.5821
vn 0.3424 -0.8381 0.4247
vn 0.4541 -0.7366 -0.5012
vn -0.4541 -0.7366 -0.5012
vn -0.9117 -0.4104 -0.0208
vn -0.9117 -0.1536 0.3812
vn -0.4541 0.1454 0.8790
vn 0.4541 0.1454 0.8790
vn 0.9117 -0.1536 0.3812
vn 0.9117 -0.4104 -0.0207
vn 0.3476 -0.9155 0.2028
vn 0.3476 -0.5686 0.7456
vn -0.3476 -0.5686 0.7456
vn -0.3476 -0.9155 0.2028
# 40 vertex normals

vt 0.6068 0.8434 0.0000
vt 0.6068 0.7135 0.0000
vt 0.7193 0.7135 0.0000
vt 0.7193 0.8434 0.0000
vt 0.1358 0.3005 0.0000
vt 0.1304 0.3045 0.0000
vt 0.1302 0.2987 0.0000
vt 0.0195 0.3883 0.0000
vt 0.0194 0.3941 0.0000
vt 0.0139 0.3901 0.0000
vt 0.0180 0.2987 0.0000
vt 0.0178 0.3045 0.0000
vt 0.0124 0.3005 0.0000
vt 0.1373 0.3901 0.0000
vt 0.1319 0.3941 0.0000
vt 0.1318 0.3883 0.0000
vt 0.6000 0.8434 0.0000
vt 0.6000 0.7135 0.0000
vt 0.7341 0.7022 0.0000
vt 0.7408 0.7022 0.0000
vt 0.7408 0.8321 0.0000
vt 0.7341 0.8321 0.0000
vt 0.1361 0.2731 0.0000
vt 0.1361 0.2988 0.0000
vt 0.1303 0.2731 0.0000
vt 0.5743 0.8435 0.0000
vt 0.5743 0.7134 0.0000
vt 0.0195 0.3627 0.0000
vt 0.1318 0.3627 0.0000
vt 0.7665 0.7021 0.0000
vt 0.7665 0.8322 0.0000
vt 0.0179 0.2731 0.0000
vt 0.0136 0.3627 0.0000
vt 0.0136 0.3884 0.0000
vt 0.1376 0.3627 0.0000
vt 0.1376 0.3884 0.0000
vt 0.0121 0.2731 0.0000
vt 0.0121 0.2988 0.0000
vt 0.7524 0.9997 0.0000
vt 0.6231 0.9997 0.0000
vt 0.6231 0.9955 0.0000
vt 0.7524 0.9955 0.0000
vt 0.2547 0.9997 0.0000
vt 0.2501 0.9997 0.0000
vt 0.2501 0.9955 0.0000
vt 0.2547 0.9955 0.0000
vt 0.3667 0.9997 0.0000
vt 0.3667 0.9955 0.0000
vt 0.3718 0.9997 0.0000
vt 0.3718 0.9955 0.0000
vt 0.5011 0.9997 0.0000
vt 0.5011 0.9955 0.0000
vt 0.5061 0.9997 0.0000
vt 0.5061 0.9955 0.0000
vt 0.6181 0.9997 0.0000
vt 0.6181 0.9955 0.0000
vt 0.4767 0.4525 0.0000
vt 0.3475 0.4525 0.0000
vt 0.3475 0.4256 0.0000
vt 0.4767 0.4256 0.0000
vt 0.5073 0.3077 0.0000
vt 0.5073 0.4201 0.0000
vt 0.4806 0.4199 0.0000
vt 0.4806 0.3079 0.0000
vt 0.3475 0.2753 0.0000
vt 0.4767 0.2753 0.0000
vt 0.4767 0.3022 0.0000
vt 0.3475 0.3022 0.0000
vt 0.3169 0.4201 0.0000
vt 0.3169 0.3077 0.0000
vt 0.3437 0.3079 0.0000
vt 0.3437 0.4199 0.0000
vt 0.5072 0.4245 0.0000
vt 0.4801 0.4241 0.0000
vt 0.5072 0.3032 0.0000
vt 0.4801 0.3036 0.0000
vt 0.3170 0.3032 0.0000
vt 0.3442 0.3036 0.0000
vt 0.3170 0.4245 0.0000
vt 0.3442 0.4241 0.0000
vt 0.3487 0.4201 0.0000
vt 0.3487 0.3076 0.0000
vt 0.4755 0.3076 0.0000
vt 0.4755 0.4201 0.0000
# 84 texture coords

o cardboar_box_top_007
g cardboar_box_top_007
s 1
f 41/69/41 42/70/42 43/71/43 44/72/44 
f 45/73/45 41/74/41 46/75/46 
f 47/76/47 42/77/42 48/78/48 
f 49/79/49 44/80/44 50/81/50 
f 51/82/51 43/83/43 52/84/52 
f 41/69/41 45/85/45 48/86/48 42/70/42 
f 43/87/43 51/88/51 50/89/50 44/90/44 
f 44/80/44 49/79/49 46/75/46 41/74/41 
f 53/91/53 45/92/45 46/75/46 54/93/54 
f 42/77/42 47/76/47 52/84/52 43/83/43 
f 53/94/53 55/95/55 48/86/48 45/85/45 
f 56/96/56 57/97/57 52/84/52 47/76/47 
f 58/98/58 59/99/59 50/89/50 51/88/51 
f 60/100/60 54/93/54 46/75/46 49/79/49 
f 55/101/55 56/96/56 47/76/47 48/102/48 
f 57/97/57 58/103/58 51/104/51 52/84/52 
f 59/105/59 60/100/60 49/79/49 50/106/50 
f 55/107/55 53/108/53 61/109/61 62/110/62 
f 56/111/56 55/112/55 62/113/62 63/114/63 
f 57/115/57 56/111/56 63/114/63 64/116/64 
f 58/117/58 57/115/57 64/116/64 65/118/65 
f 59/119/59 58/117/58 65/118/65 66/120/66 
f 60/121/60 59/119/59 66/120/66 67/122/67 
f 54/123/54 60/121/60 67/122/67 68/124/68 
f 53/108/53 54/123/54 68/124/68 61/109/61 
f 62/125/62 61/126/61 69/127/69 70/128/70 
f 64/129/64 63/130/63 71/131/71 72/132/72 
f 66/133/66 65/134/65 73/135/73 74/136/74 
f 68/137/68 67/138/67 75/139/75 76/140/76 
f 63/130/63 62/141/62 70/142/70 71/131/71 
f 65/143/65 64/129/64 72/132/72 73/144/73 
f 67/138/67 66/145/66 74/146/74 75/139/75 
f 61/147/61 68/137/68 76/140/76 69/148/69 
f 77/149/77 78/150/78 79/151/79 80/152/80 
f 70/128/70 69/127/69 77/149/77 80/152/80 
f 69/148/69 76/140/76 77/149/77 
f 76/140/76 75/139/75 78/150/78 77/149/77 
f 75/139/75 74/146/74 78/150/78 
f 74/136/74 73/135/73 79/151/79 78/150/78 
f 73/144/73 72/132/72 79/151/79 
f 72/132/72 71/131/71 80/152/80 79/151/79 
f 71/131/71 70/142/70 80/152/80 
# 34 polygons - 8 triangles

