# 3ds Max Wavefront OBJ Exporter v0.97b - (c)2007 guruware
# File Created: 12.05.2019 14:10:08

#
# object cardboar_box_006
#

v  16.8810 0.0000 14.6667
v  -16.8810 0.0000 14.6667
v  -16.8810 0.0000 -14.6667
v  16.8810 0.0000 -14.6667
v  17.1017 16.0844 -14.8303
v  -17.1017 16.0844 -14.8303
v  -17.1017 16.0844 14.8303
v  17.1017 16.0844 14.8303
v  16.8810 1.0000 15.6667
v  16.8810 7.7427 15.6667
v  -16.8810 7.7427 15.6667
v  -16.8810 1.0000 15.6667
v  17.4701 1.0000 -14.6667
v  17.4701 7.7427 -14.6667
v  17.4701 7.7427 14.6667
v  17.4701 1.0000 14.6667
v  -16.8810 1.0000 -15.6667
v  -16.8810 7.7427 -15.6667
v  16.8810 7.7427 -15.6667
v  16.8810 1.0000 -15.6667
v  -17.4701 1.0000 14.6667
v  -17.4701 7.7427 14.6667
v  -17.4701 7.7427 -14.6667
v  -17.4701 1.0000 -14.6667
v  -17.1017 14.8303 16.0844
v  -17.9387 14.7900 14.7900
v  17.9387 14.7900 14.7900
v  17.1017 14.8303 16.0844
v  -17.9387 14.7900 -14.7900
v  -17.1017 14.8303 -16.0844
v  17.1017 14.8303 -16.0844
v  17.9387 14.7900 -14.7900
v  -17.9525 8.0563 14.7982
v  -17.1291 8.0563 16.1008
v  17.1291 8.0563 16.1008
v  17.9525 8.0563 14.7982
v  17.9525 8.0563 -14.7982
v  17.1291 8.0563 -16.1008
v  -17.1291 8.0563 -16.1008
v  -17.9525 8.0563 -14.7982
# 40 vertices

vn 0.4414 -0.8355 0.3273
vn -0.4414 -0.8355 0.3273
vn -0.4414 -0.8355 -0.3273
vn 0.4414 -0.8355 -0.3273
vn 0.4270 0.8416 -0.3307
vn -0.4269 0.8416 -0.3308
vn -0.4269 0.8416 0.3308
vn 0.4270 0.8416 0.3307
vn 0.4414 -0.3273 0.8355
vn 0.4099 -0.5634 0.7173
vn -0.4099 -0.5634 0.7173
vn -0.4414 -0.3273 0.8355
vn 0.9372 -0.2466 -0.2466
vn 0.8229 -0.5221 -0.2244
vn 0.8229 -0.5221 0.2244
vn 0.9372 -0.2466 0.2466
vn -0.4414 -0.3273 -0.8355
vn -0.4099 -0.5634 -0.7173
vn 0.4099 -0.5634 -0.7173
vn 0.4414 -0.3273 -0.8355
vn -0.9372 -0.2466 0.2466
vn -0.8229 -0.5221 0.2244
vn -0.8229 -0.5221 -0.2244
vn -0.9372 -0.2466 -0.2466
vn -0.4263 0.3327 0.8412
vn -0.9300 0.2606 0.2593
vn 0.9300 0.2606 0.2593
vn 0.4264 0.3326 0.8412
vn -0.9300 0.2606 -0.2593
vn -0.4263 0.3327 -0.8412
vn 0.4264 0.3326 -0.8412
vn 0.9300 0.2606 -0.2593
vn -0.8579 -0.4500 0.2479
vn -0.4371 -0.4283 0.7909
vn 0.4371 -0.4283 0.7909
vn 0.8579 -0.4500 0.2479
vn 0.8579 -0.4500 -0.2479
vn 0.4371 -0.4283 -0.7909
vn -0.4371 -0.4283 -0.7909
vn -0.8579 -0.4500 -0.2479
# 40 vertex normals

vt 0.3711 0.0217 0.0000
vt 0.4993 0.0217 0.0000
vt 0.4993 0.1330 0.0000
vt 0.3711 0.1330 0.0000
vt 0.9601 0.1475 0.0000
vt 0.9601 0.2774 0.0000
vt 0.8475 0.2774 0.0000
vt 0.8475 0.1475 0.0000
vt 0.1735 0.0404 0.0000
vt 0.1735 0.0660 0.0000
vt 0.0454 0.0660 0.0000
vt 0.0454 0.0404 0.0000
vt 0.5564 0.0470 0.0000
vt 0.5564 0.0726 0.0000
vt 0.4451 0.0726 0.0000
vt 0.4451 0.0470 0.0000
vt 0.4414 0.0385 0.0000
vt 0.4414 0.0641 0.0000
vt 0.3132 0.0641 0.0000
vt 0.3132 0.0385 0.0000
vt 0.2975 0.0404 0.0000
vt 0.2975 0.0660 0.0000
vt 0.1862 0.0660 0.0000
vt 0.1862 0.0404 0.0000
vt 0.3020 0.0404 0.0000
vt 0.2987 0.0361 0.0000
vt 0.4439 0.0427 0.0000
vt 0.4407 0.0470 0.0000
vt 0.1851 0.0361 0.0000
vt 0.1818 0.0404 0.0000
vt 0.5608 0.0470 0.0000
vt 0.5575 0.0427 0.0000
vt 0.1358 0.3005 0.0000
vt 0.1304 0.3045 0.0000
vt 0.1302 0.2987 0.0000
vt 0.0195 0.3883 0.0000
vt 0.0194 0.3941 0.0000
vt 0.0139 0.3901 0.0000
vt 0.0180 0.2987 0.0000
vt 0.0178 0.3045 0.0000
vt 0.0124 0.3005 0.0000
vt 0.1373 0.3901 0.0000
vt 0.1319 0.3941 0.0000
vt 0.1318 0.3883 0.0000
vt 0.3132 0.0331 0.0000
vt 0.4414 0.0331 0.0000
vt 0.4451 0.0426 0.0000
vt 0.5564 0.0426 0.0000
vt 0.0454 0.0350 0.0000
vt 0.1735 0.0350 0.0000
vt 0.8407 0.1475 0.0000
vt 0.8407 0.2774 0.0000
vt 0.9363 0.3547 0.0000
vt 0.9295 0.3547 0.0000
vt 0.9295 0.2249 0.0000
vt 0.9363 0.2249 0.0000
vt 0.4407 0.0726 0.0000
vt 0.1303 0.2731 0.0000
vt 0.1361 0.2731 0.0000
vt 0.1361 0.2988 0.0000
vt 0.5608 0.0726 0.0000
vt 0.1818 0.0660 0.0000
vt 0.1862 0.0360 0.0000
vt 0.2975 0.0360 0.0000
vt 0.8150 0.2775 0.0000
vt 0.8150 0.1474 0.0000
vt 0.0195 0.3627 0.0000
vt 0.1318 0.3627 0.0000
vt 0.9620 0.2248 0.0000
vt 0.9620 0.3548 0.0000
vt 0.0179 0.2731 0.0000
vt 0.0136 0.3884 0.0000
vt 0.0136 0.3627 0.0000
vt 0.3020 0.0660 0.0000
vt 0.1376 0.3884 0.0000
vt 0.1376 0.3627 0.0000
vt 0.0121 0.2988 0.0000
vt 0.0121 0.2731 0.0000
vt 0.6231 0.9955 0.0000
vt 0.7524 0.9955 0.0000
vt 0.7524 0.9997 0.0000
vt 0.6231 0.9997 0.0000
vt 0.2501 0.9955 0.0000
vt 0.2547 0.9955 0.0000
vt 0.2547 0.9997 0.0000
vt 0.2501 0.9997 0.0000
vt 0.3667 0.9955 0.0000
vt 0.3667 0.9997 0.0000
vt 0.3718 0.9955 0.0000
vt 0.3718 0.9997 0.0000
vt 0.5011 0.9955 0.0000
vt 0.5011 0.9997 0.0000
vt 0.5061 0.9955 0.0000
vt 0.5061 0.9997 0.0000
vt 0.6181 0.9955 0.0000
vt 0.6181 0.9997 0.0000
# 96 texture coords

o cardboar_box_006
g cardboar_box_006
s 1
f 1/1/1 2/2/2 3/3/3 4/4/4 
f 5/5/5 6/6/6 7/7/7 8/8/8 
f 9/9/9 10/10/10 11/11/11 12/12/12 
f 13/13/13 14/14/14 15/15/15 16/16/16 
f 17/17/17 18/18/18 19/19/19 20/20/20 
f 21/21/21 22/22/22 23/23/23 24/24/24 
f 12/25/12 21/21/21 2/26/2 
f 1/27/1 16/16/16 9/28/9 
f 3/29/3 24/24/24 17/30/17 
f 20/31/20 13/13/13 4/32/4 
f 25/33/25 7/34/7 26/35/26 
f 27/36/27 8/37/8 28/38/28 
f 29/39/29 6/40/6 30/41/30 
f 31/42/31 5/43/5 32/44/32 
f 20/20/20 4/45/4 3/46/3 17/17/17 
f 16/16/16 1/47/1 4/48/4 13/13/13 
f 12/12/12 2/49/2 1/50/1 9/9/9 
f 28/51/28 8/8/8 7/7/7 25/52/25 
f 30/53/30 6/54/6 5/55/5 31/56/31 
f 26/35/26 7/34/7 6/40/6 29/39/29 
f 16/16/16 15/15/15 10/57/10 9/28/9 
f 26/35/26 33/58/33 34/59/34 25/60/25 
f 20/31/20 19/61/19 14/14/14 13/13/13 
f 24/24/24 23/23/23 18/62/18 17/30/17 
f 24/24/24 3/63/3 2/64/2 21/21/21 
f 32/44/32 5/43/5 8/37/8 27/36/27 
f 28/51/28 25/52/25 34/65/34 35/66/35 
f 32/44/32 27/36/27 36/67/36 37/68/37 
f 30/53/30 31/56/31 38/69/38 39/70/39 
f 26/35/26 29/39/29 40/71/40 33/58/33 
f 27/36/27 28/72/28 35/73/35 36/67/36 
f 21/21/21 12/25/12 11/74/11 22/22/22 
f 31/75/31 32/44/32 37/68/37 38/76/38 
f 29/39/29 30/77/30 39/78/39 40/71/40 
f 11/79/11 10/80/10 35/81/35 34/82/34 
f 10/83/10 15/84/15 36/85/36 35/86/35 
f 15/84/15 14/87/14 37/88/37 36/85/36 
f 14/87/14 19/89/19 38/90/38 37/88/37 
f 19/89/19 18/91/18 39/92/39 38/90/38 
f 18/91/18 23/93/23 40/94/40 39/92/39 
f 23/93/23 22/95/22 33/96/33 40/94/40 
f 22/95/22 11/79/11 34/82/34 33/96/33 
# 34 polygons - 8 triangles

