# 3ds Max Wavefront OBJ Exporter v0.97b - (c)2007 guruware
# File Created: 12.05.2019 14:08:52

#
# object cardboar_box_003
#

v  -33.9583 0.0000 -28.0939
v  23.3497 0.0000 -28.0939
v  23.3497 0.0000 28.0260
v  -33.9583 0.0000 28.0260
v  23.3497 50.9997 -28.0939
v  -33.9583 49.8014 -28.0939
v  23.3497 45.9585 28.0260
v  -33.9583 45.4440 29.0260
v  -29.4171 17.1541 28.1102
v  23.3497 25.0006 26.1100
v  23.3497 44.9585 29.0260
v  24.3497 44.9585 28.0260
v  24.3497 25.0006 21.0103
v  24.3497 25.0006 -30.8164
v  24.3497 49.9997 -28.0939
v  -33.9583 48.8014 -29.0939
v  23.3497 25.0006 -31.8164
v  -33.9583 1.0000 -29.0939
v  -34.9583 48.8014 -28.0939
v  -34.9583 1.0000 -28.0939
v  -30.4171 17.1541 27.1102
v  -33.9583 1.0000 29.0260
v  -34.9583 1.0000 28.0260
v  24.3497 1.0000 28.0260
v  23.3497 1.0000 29.0260
v  23.3497 1.0000 -29.0939
v  24.3497 1.0000 -28.0939
v  -33.9583 46.4440 28.0260
v  -34.9583 45.4440 28.0260
v  23.3497 49.9997 -29.0939
v  24.3497 25.0006 25.1100
# 31 vertices

vn -0.3416 -0.8756 -0.3416
vn 0.3416 -0.8756 -0.3416
vn 0.3416 -0.8756 0.3416
vn -0.3416 -0.8756 0.3416
vn 0.3326 0.8931 -0.3029
vn -0.3473 0.8843 -0.3122
vn 0.3410 0.8613 0.3766
vn -0.3624 0.2987 0.8829
vn -0.3197 0.0312 0.9470
vn 0.4135 -0.0177 0.9103
vn 0.3428 0.2776 0.8975
vn 0.8760 0.3006 0.3771
vn 1.0000 0.0000 -0.0000
vn 0.9142 -0.0010 -0.4052
vn 0.8751 0.3723 -0.3091
vn -0.3541 0.3452 -0.8692
vn 0.3674 -0.0017 -0.9301
vn -0.3503 -0.3482 -0.8695
vn -0.8855 0.3391 -0.3177
vn -0.8864 -0.3300 -0.3248
vn -0.9144 0.0609 0.4002
vn -0.3787 -0.2625 0.8875
vn -0.9128 -0.2146 0.3475
vn 0.8773 -0.3187 0.3588
vn 0.3417 -0.2894 0.8941
vn 0.3407 -0.3900 -0.8554
vn 0.8743 -0.3604 -0.3253
vn -0.3376 0.8666 0.3673
vn -0.8992 0.2575 0.3538
vn 0.3365 0.3908 -0.8568
vn 0.9351 -0.0040 0.3544
# 31 vertex normals

vt 0.8950 0.5366 0.0000
vt 0.6772 0.5366 0.0000
vt 0.6772 0.3234 0.0000
vt 0.8950 0.3234 0.0000
vt 0.4910 0.6152 0.0000
vt 0.2732 0.6152 0.0000
vt 0.4910 0.4019 0.0000
vt 0.5938 0.7329 0.0000
vt 0.5969 0.6135 0.0000
vt 0.8116 0.6424 0.0000
vt 0.8116 0.7329 0.0000
vt 0.7730 0.2243 0.0000
vt 0.7984 0.1339 0.0000
vt 0.9862 0.1339 0.0000
vt 0.9862 0.2243 0.0000
vt 0.7202 0.2258 0.0000
vt 0.5024 0.1353 0.0000
vt 0.7202 0.0441 0.0000
vt 0.2469 0.2342 0.0000
vt 0.2469 0.0526 0.0000
vt 0.4608 0.1150 0.0000
vt 0.4655 0.0526 0.0000
vt 0.4602 0.0526 0.0000
vt 0.4628 0.0479 0.0000
vt 0.7703 0.0380 0.0000
vt 0.7730 0.0426 0.0000
vt 0.7676 0.0426 0.0000
vt 0.2442 0.0479 0.0000
vt 0.2415 0.0526 0.0000
vt 0.9916 0.0426 0.0000
vt 0.9862 0.0426 0.0000
vt 0.9889 0.0380 0.0000
vt 0.6600 0.9927 0.0000
vt 0.6553 0.9954 0.0000
vt 0.6553 0.9900 0.0000
vt 0.3647 0.9900 0.0000
vt 0.3647 0.9954 0.0000
vt 0.3601 0.9927 0.0000
vt 0.4420 0.9900 0.0000
vt 0.4420 0.9954 0.0000
vt 0.4374 0.9927 0.0000
vt 0.5827 0.9927 0.0000
vt 0.5780 0.9954 0.0000
vt 0.5780 0.9900 0.0000
vt 0.7202 0.0387 0.0000
vt 0.5024 0.0441 0.0000
vt 0.5024 0.0387 0.0000
vt 0.9862 0.0373 0.0000
vt 0.7730 0.0373 0.0000
vt 0.8116 0.5458 0.0000
vt 0.8116 0.5512 0.0000
vt 0.5938 0.5512 0.0000
vt 0.5938 0.5458 0.0000
vt 0.5938 0.7383 0.0000
vt 0.8116 0.7383 0.0000
vt 0.5024 0.2312 0.0000
vt 0.5024 0.2258 0.0000
vt 0.7202 0.2312 0.0000
vt 0.7676 0.2243 0.0000
vt 0.7676 0.1339 0.0000
vt 0.7730 0.1339 0.0000
vt 0.4648 0.1153 0.0000
vt 0.9916 0.1339 0.0000
vt 0.9916 0.2243 0.0000
vt 0.2415 0.2342 0.0000
vt 0.4602 0.0472 0.0000
vt 0.2469 0.0472 0.0000
vt 0.4655 0.2342 0.0000
vt 0.4602 0.2342 0.0000
vt 0.2732 0.4019 0.0000
# 70 texture coords

o cardboar_box_003
g cardboar_box_003
s 1
f 1/1/1 2/2/2 3/3/3 4/4/4 
f 5/5/5 6/6/6 7/7/7 
f 8/8/8 9/9/9 10/10/10 11/11/11 
f 12/12/12 13/13/13 14/14/14 15/15/15 
f 16/16/16 17/17/17 18/18/18 
f 19/19/19 20/20/20 21/21/21 
f 22/22/22 23/23/23 4/24/4 
f 3/25/3 24/26/24 25/27/25 
f 1/28/1 20/20/20 18/29/18 
f 26/30/26 27/31/27 2/32/2 
f 8/33/8 28/34/28 29/35/29 
f 12/36/12 7/37/7 11/38/11 
f 19/39/19 6/40/6 16/41/16 
f 30/42/30 5/43/5 15/44/15 
f 1/45/1 18/18/18 26/46/26 2/47/2 
f 2/48/2 27/31/27 24/26/24 3/49/3 
f 3/50/3 25/51/25 22/52/22 4/53/4 
f 28/54/28 8/8/8 11/11/11 7/55/7 
f 5/56/5 30/57/30 16/16/16 6/58/6 
f 6/40/6 19/39/19 29/35/29 28/34/28 
f 11/59/11 10/60/10 31/61/31 12/12/12 
f 22/22/22 9/62/9 21/21/21 23/23/23 
f 15/15/15 14/14/14 17/63/17 30/64/30 
f 19/19/19 16/65/16 18/29/18 20/20/20 
f 4/66/4 23/23/23 20/20/20 1/67/1 
f 7/37/7 12/36/12 15/44/15 5/43/5 
f 22/52/22 25/51/25 10/10/10 9/9/9 
f 24/26/24 27/31/27 14/14/14 13/13/13 
f 20/20/20 23/23/23 21/21/21 
f 25/27/25 24/26/24 31/61/31 10/60/10 
f 8/68/8 29/69/29 21/21/21 9/62/9 
f 27/31/27 26/30/26 17/63/17 14/14/14 
f 12/12/12 31/61/31 13/13/13 
f 13/13/13 31/61/31 24/26/24 
f 6/6/6 28/70/28 7/7/7 
f 21/21/21 29/69/29 19/19/19 
f 16/16/16 30/57/30 17/17/17 
f 17/17/17 26/46/26 18/18/18 
# 20 polygons - 18 triangles

