# 3ds Max Wavefront OBJ Exporter v0.97b - (c)2007 guruware
# File Created: 12.05.2019 14:10:49

#
# object cardboar_box_battom_008
#

v  8.3946 0.0000 8.4965
v  -8.3571 0.0000 8.4965
v  -8.3571 0.0000 -8.4965
v  8.3946 0.0000 -8.4965
v  8.3946 1.0000 9.0758
v  8.3946 7.8439 9.0758
v  -8.3571 7.8439 9.0758
v  -8.3571 1.0000 9.0758
v  8.9837 1.0000 -8.4965
v  8.9837 7.8439 -8.4965
v  8.9837 7.8439 8.4965
v  8.9837 1.0000 8.4965
v  -8.3571 1.0000 -9.0758
v  -8.3571 7.8439 -9.0758
v  8.3946 7.8439 -9.0758
v  8.3946 1.0000 -9.0758
v  -8.9462 1.0000 8.4965
v  -8.9462 7.8439 8.4965
v  -8.9462 7.8439 -8.4965
v  -8.9462 1.0000 -8.4965
v  -8.1364 0.4177 -8.4017
v  -8.1364 0.4177 8.4017
v  8.1739 0.4177 8.4017
v  8.1739 0.4177 -8.4017
v  -8.1090 7.8439 8.8243
v  8.1465 7.8439 8.8243
v  8.1739 1.1636 8.8338
v  -8.1364 1.1636 8.8338
v  8.5013 7.8439 8.4203
v  8.5013 7.8439 -8.4203
v  8.5151 1.1233 -8.4251
v  8.5151 1.1233 8.4251
v  8.1465 7.8439 -8.8243
v  -8.1090 7.8439 -8.8243
v  -8.1364 1.1636 -8.8338
v  8.1739 1.1636 -8.8338
v  -8.4639 7.8439 -8.4203
v  -8.4639 7.8439 8.4203
v  -8.4776 1.1233 8.4251
v  -8.4776 1.1233 -8.4251
# 40 vertices

vn 0.4244 -0.7981 0.4276
vn -0.4244 -0.7981 0.4276
vn -0.4244 -0.7981 -0.4276
vn 0.4244 -0.7981 -0.4276
vn 0.3526 -0.2336 0.9062
vn 0.2939 0.6310 0.7180
vn -0.2939 0.6310 0.7180
vn -0.3526 -0.2336 0.9062
vn 0.9029 -0.2360 -0.3592
vn 0.7165 0.6296 -0.3003
vn 0.7165 0.6296 0.3003
vn 0.9029 -0.2360 0.3592
vn -0.3526 -0.2336 -0.9062
vn -0.2939 0.6310 -0.7180
vn 0.2938 0.6310 -0.7180
vn 0.3526 -0.2336 -0.9062
vn -0.9029 -0.2360 0.3592
vn -0.7165 0.6296 0.3003
vn -0.7165 0.6296 -0.3003
vn -0.9029 -0.2360 -0.3592
vn 0.4533 0.7856 0.4212
vn 0.4533 0.7856 -0.4212
vn -0.4533 0.7856 -0.4212
vn -0.4533 0.7856 0.4212
vn 0.2403 0.8119 -0.5321
vn -0.2403 0.8119 -0.5321
vn -0.3900 0.2248 -0.8929
vn 0.3900 0.2248 -0.8929
vn -0.5675 0.7951 -0.2138
vn -0.5675 0.7951 0.2138
vn -0.9205 0.2106 0.3291
vn -0.9205 0.2106 -0.3291
vn -0.2403 0.8119 0.5321
vn 0.2403 0.8119 0.5321
vn 0.3900 0.2248 0.8929
vn -0.3900 0.2248 0.8929
vn 0.5675 0.7951 0.2138
vn 0.5675 0.7951 -0.2138
vn 0.9205 0.2106 -0.3291
vn 0.9205 0.2106 0.3291
# 40 vertex normals

vt 0.3598 0.5861 0.0000
vt 0.4423 0.5861 0.0000
vt 0.4423 0.6697 0.0000
vt 0.3598 0.6697 0.0000
vt 0.1389 0.4980 0.0000
vt 0.1391 0.5304 0.0000
vt 0.0589 0.5304 0.0000
vt 0.0582 0.4983 0.0000
vt 0.2242 0.4981 0.0000
vt 0.2245 0.5304 0.0000
vt 0.1426 0.5304 0.0000
vt 0.1425 0.4981 0.0000
vt 0.3082 0.4981 0.0000
vt 0.3080 0.5304 0.0000
vt 0.2279 0.5304 0.0000
vt 0.2277 0.4981 0.0000
vt 0.3936 0.4981 0.0000
vt 0.3930 0.5304 0.0000
vt 0.3115 0.5304 0.0000
vt 0.3117 0.4981 0.0000
vt 0.3976 0.4982 0.0000
vt 0.3957 0.4893 0.0000
vt 0.1408 0.4892 0.0000
vt 0.3099 0.4893 0.0000
vt 0.2260 0.4893 0.0000
vt 0.2275 0.4886 0.0000
vt 0.3084 0.4887 0.0000
vt 0.1423 0.4886 0.0000
vt 0.2244 0.4886 0.0000
vt 0.0581 0.4889 0.0000
vt 0.1390 0.4886 0.0000
vt 0.3116 0.4886 0.0000
vt 0.3937 0.4886 0.0000
vt 0.3964 0.5304 0.0000
vt 0.1956 0.3450 0.0000
vt 0.1956 0.4278 0.0000
vt 0.1153 0.4278 0.0000
vt 0.1153 0.3450 0.0000
vt 0.1955 0.4649 0.0000
vt 0.1155 0.4649 0.0000
vt 0.1153 0.4321 0.0000
vt 0.1956 0.4321 0.0000
vt 0.0786 0.4279 0.0000
vt 0.0786 0.3450 0.0000
vt 0.1116 0.3450 0.0000
vt 0.1116 0.4278 0.0000
vt 0.1155 0.3079 0.0000
vt 0.1955 0.3079 0.0000
vt 0.1956 0.3408 0.0000
vt 0.1153 0.3408 0.0000
vt 0.2324 0.3450 0.0000
vt 0.2324 0.4279 0.0000
vt 0.1994 0.4278 0.0000
vt 0.1994 0.3450 0.0000
vt 0.1993 0.4303 0.0000
vt 0.1116 0.4303 0.0000
vt 0.1993 0.3425 0.0000
vt 0.1116 0.3425 0.0000
vt 0.0786 0.4305 0.0000
vt 0.0786 0.3423 0.0000
vt 0.2323 0.3423 0.0000
vt 0.2323 0.4305 0.0000
# 62 texture coords

o cardboar_box_battom_008
g cardboar_box_battom_008
s 1
f 1/1/1 2/2/2 3/3/3 4/4/4 
f 5/5/5 6/6/6 7/7/7 8/8/8 
f 9/9/9 10/10/10 11/11/11 12/12/12 
f 13/13/13 14/14/14 15/15/15 16/16/16 
f 17/17/17 18/18/18 19/19/19 20/20/20 
f 8/21/8 17/17/17 2/22/2 
f 1/23/1 12/12/12 5/5/5 
f 3/24/3 20/20/20 13/13/13 
f 16/16/16 9/9/9 4/25/4 
f 16/16/16 4/26/4 3/27/3 13/13/13 
f 12/12/12 1/28/1 4/29/4 9/9/9 
f 8/8/8 2/30/2 1/31/1 5/5/5 
f 12/12/12 11/11/11 6/6/6 5/5/5 
f 16/16/16 15/15/15 10/10/10 9/9/9 
f 20/20/20 19/19/19 14/14/14 13/13/13 
f 20/20/20 3/32/3 2/33/2 17/17/17 
f 17/17/17 8/21/8 7/34/7 18/18/18 
f 21/35/21 22/36/22 23/37/23 24/38/24 
f 25/39/25 26/40/26 27/41/27 28/42/28 
f 29/43/29 30/44/30 31/45/31 32/46/32 
f 33/47/33 34/48/34 35/49/35 36/50/36 
f 37/51/37 38/52/38 39/53/39 40/54/40 
f 22/36/22 39/53/39 28/55/28 
f 27/56/27 32/46/32 23/37/23 
f 35/57/35 40/54/40 21/35/21 
f 24/38/24 31/45/31 36/58/36 
f 21/35/21 24/38/24 36/50/36 35/49/35 
f 24/38/24 23/37/23 32/46/32 31/45/31 
f 23/37/23 22/36/22 28/42/28 27/41/27 
f 26/59/26 29/43/29 32/46/32 27/56/27 
f 30/44/30 33/60/33 36/58/36 31/45/31 
f 34/61/34 37/51/37 40/54/40 35/57/35 
f 22/36/22 21/35/21 40/54/40 39/53/39 
f 25/62/25 28/55/28 39/53/39 38/52/38 
f 26/6/26 25/7/25 7/7/7 6/6/6 
f 30/10/30 29/11/29 11/11/11 10/10/10 
f 34/14/34 33/15/33 15/15/15 14/14/14 
f 38/18/38 37/19/37 19/19/19 18/18/18 
f 29/11/29 26/6/26 6/6/6 11/11/11 
f 33/15/33 30/10/30 10/10/10 15/15/15 
f 37/19/37 34/14/34 14/14/14 19/19/19 
f 25/34/25 38/18/38 18/18/18 7/34/7 
# 34 polygons - 8 triangles

#
# object cardboar_box_top_008
#

v  -8.5778 12.2580 -6.0431
v  8.6153 12.2580 -6.0431
v  8.6153 4.6154 -21.4325
v  -8.5778 4.6154 -21.4325
v  -8.5778 11.9216 -5.0648
v  -9.4148 11.5668 -5.7259
v  9.4523 11.5668 -5.7259
v  8.6153 11.9216 -5.0648
v  -9.4148 3.9451 -21.0735
v  -8.5778 3.6328 -21.7556
v  8.6153 3.6328 -21.7556
v  9.4523 3.9451 -21.0735
v  -8.6052 8.3633 -3.2872
v  -9.4286 8.0276 -3.9630
v  8.6427 8.3633 -3.2872
v  9.4661 8.0276 -3.9630
v  9.4661 0.4016 -19.3191
v  8.6427 0.0660 -19.9949
v  -8.6052 0.0660 -19.9949
v  -9.4286 0.4016 -19.3191
v  -8.3571 8.0865 -3.4305
v  8.3946 8.0865 -3.4305
v  8.9837 7.8288 -3.9493
v  8.9837 0.2706 -19.1689
v  8.3946 0.0130 -19.6878
v  -8.3571 0.0130 -19.6878
v  -8.9462 0.2706 -19.1689
v  -8.9462 7.8288 -3.9493
v  -8.3571 11.7806 -5.2650
v  8.3946 11.7806 -5.2650
v  8.9837 11.5229 -5.7839
v  8.9837 3.9647 -21.0035
v  8.3946 3.7071 -21.5223
v  -8.3571 3.7071 -21.5223
v  -8.9462 3.9647 -21.0035
v  -8.9462 11.5229 -5.7839
v  -8.0341 12.0530 -6.0472
v  -8.0341 4.4949 -21.2667
v  8.0716 4.4949 -21.2667
v  8.0716 12.0530 -6.0472
# 40 vertices

vn -0.3235 0.9429 -0.0794
vn 0.3235 0.9429 -0.0794
vn 0.3235 0.6331 -0.7032
vn -0.3235 0.6331 -0.7032
vn -0.3206 0.7016 0.6364
vn -0.8630 0.4787 0.1619
vn 0.8630 0.4787 0.1619
vn 0.3206 0.7016 0.6364
vn -0.8630 0.1603 -0.4792
vn -0.3206 -0.0830 -0.9436
vn 0.3206 -0.0830 -0.9436
vn 0.8630 0.1603 -0.4792
vn -0.3378 -0.0473 0.9400
vn -0.7935 -0.3016 0.5286
vn 0.3378 -0.0473 0.9400
vn 0.7935 -0.3016 0.5286
vn 0.7935 -0.6034 -0.0791
vn 0.3378 -0.7776 -0.5304
vn -0.3378 -0.7776 -0.5304
vn -0.7935 -0.6034 -0.0791
vn 0.1763 -0.9644 0.1974
vn -0.1761 -0.9644 0.1973
vn -0.3669 -0.8798 0.3023
vn -0.3669 -0.7725 0.5183
vn -0.1761 -0.7401 0.6490
vn 0.1762 -0.7401 0.6490
vn 0.3669 -0.7725 0.5183
vn 0.3669 -0.8798 0.3023
vn 0.3565 -0.7165 -0.5997
vn -0.3565 -0.7165 -0.5997
vn -0.8421 -0.5281 -0.1096
vn -0.8421 -0.2318 0.4870
vn -0.3565 0.0448 0.9332
vn 0.3565 0.0448 0.9332
vn 0.8421 -0.2318 0.4870
vn 0.8421 -0.5281 -0.1096
vn 0.2353 -0.9663 0.1042
vn 0.2353 -0.6670 0.7069
vn -0.2353 -0.6670 0.7070
vn -0.2353 -0.9663 0.1042
# 40 vertex normals

vt 0.5524 0.7564 0.0000
vt 0.5524 0.6675 0.0000
vt 0.6413 0.6675 0.0000
vt 0.6413 0.7564 0.0000
vt 0.2015 0.3545 0.0000
vt 0.1968 0.3571 0.0000
vt 0.1967 0.3512 0.0000
vt 0.1092 0.4186 0.0000
vt 0.1091 0.4244 0.0000
vt 0.1044 0.4219 0.0000
vt 0.1080 0.3512 0.0000
vt 0.1079 0.3571 0.0000
vt 0.1032 0.3545 0.0000
vt 0.2027 0.4219 0.0000
vt 0.1980 0.4244 0.0000
vt 0.1979 0.4186 0.0000
vt 0.5470 0.7564 0.0000
vt 0.5470 0.6675 0.0000
vt 0.6467 0.6675 0.0000
vt 0.6467 0.7564 0.0000
vt 0.2025 0.3308 0.0000
vt 0.2025 0.3514 0.0000
vt 0.1967 0.3308 0.0000
vt 0.5265 0.7566 0.0000
vt 0.5265 0.6673 0.0000
vt 0.1092 0.3981 0.0000
vt 0.1979 0.3981 0.0000
vt 0.6672 0.6673 0.0000
vt 0.6672 0.7566 0.0000
vt 0.1080 0.3308 0.0000
vt 0.1034 0.3981 0.0000
vt 0.1034 0.4187 0.0000
vt 0.2037 0.3981 0.0000
vt 0.2037 0.4187 0.0000
vt 0.1022 0.3308 0.0000
vt 0.1022 0.3514 0.0000
vt 0.6650 0.9985 0.0000
vt 0.5678 0.9985 0.0000
vt 0.5678 0.9953 0.0000
vt 0.6650 0.9953 0.0000
vt 0.2909 0.9985 0.0000
vt 0.2875 0.9985 0.0000
vt 0.2875 0.9953 0.0000
vt 0.2909 0.9953 0.0000
vt 0.3751 0.9985 0.0000
vt 0.3751 0.9953 0.0000
vt 0.3789 0.9985 0.0000
vt 0.3789 0.9953 0.0000
vt 0.4761 0.9985 0.0000
vt 0.4761 0.9953 0.0000
vt 0.4799 0.9985 0.0000
vt 0.4799 0.9953 0.0000
vt 0.5640 0.9985 0.0000
vt 0.5640 0.9953 0.0000
vt 0.4498 0.4702 0.0000
vt 0.3631 0.4702 0.0000
vt 0.3631 0.4488 0.0000
vt 0.4498 0.4488 0.0000
vt 0.4745 0.3563 0.0000
vt 0.4745 0.4443 0.0000
vt 0.4534 0.4441 0.0000
vt 0.4534 0.3566 0.0000
vt 0.3631 0.3305 0.0000
vt 0.4498 0.3305 0.0000
vt 0.4498 0.3518 0.0000
vt 0.3631 0.3518 0.0000
vt 0.3384 0.4443 0.0000
vt 0.3384 0.3563 0.0000
vt 0.3595 0.3566 0.0000
vt 0.3595 0.4441 0.0000
vt 0.4743 0.4486 0.0000
vt 0.4525 0.4479 0.0000
vt 0.4743 0.3520 0.0000
vt 0.4525 0.3528 0.0000
vt 0.3386 0.3520 0.0000
vt 0.3604 0.3528 0.0000
vt 0.3386 0.4486 0.0000
vt 0.3604 0.4479 0.0000
vt 0.3648 0.4445 0.0000
vt 0.3648 0.3561 0.0000
vt 0.4481 0.3561 0.0000
vt 0.4481 0.4445 0.0000
# 82 texture coords

o cardboar_box_top_008
g cardboar_box_top_008
s 1
f 41/63/41 42/64/42 43/65/43 44/66/44 
f 45/67/45 41/68/41 46/69/46 
f 47/70/47 42/71/42 48/72/48 
f 49/73/49 44/74/44 50/75/50 
f 51/76/51 43/77/43 52/78/52 
f 41/63/41 45/79/45 48/80/48 42/64/42 
f 43/65/43 51/81/51 50/82/50 44/66/44 
f 44/74/44 49/73/49 46/69/46 41/68/41 
f 53/83/53 45/84/45 46/69/46 54/85/54 
f 42/71/42 47/70/47 52/78/52 43/77/43 
f 53/86/53 55/87/55 48/80/48 45/79/45 
f 56/88/56 57/89/57 52/78/52 47/70/47 
f 58/90/58 59/91/59 50/82/50 51/81/51 
f 60/92/60 54/85/54 46/69/46 49/73/49 
f 55/93/55 56/88/56 47/70/47 48/94/48 
f 57/89/57 58/95/58 51/96/51 52/78/52 
f 59/97/59 60/92/60 49/73/49 50/98/50 
f 55/99/55 53/100/53 61/101/61 62/102/62 
f 56/103/56 55/104/55 62/105/62 63/106/63 
f 57/107/57 56/103/56 63/106/63 64/108/64 
f 58/109/58 57/107/57 64/108/64 65/110/65 
f 59/111/59 58/109/58 65/110/65 66/112/66 
f 60/113/60 59/111/59 66/112/66 67/114/67 
f 54/115/54 60/113/60 67/114/67 68/116/68 
f 53/100/53 54/115/54 68/116/68 61/101/61 
f 62/117/62 61/118/61 69/119/69 70/120/70 
f 64/121/64 63/122/63 71/123/71 72/124/72 
f 66/125/66 65/126/65 73/127/73 74/128/74 
f 68/129/68 67/130/67 75/131/75 76/132/76 
f 63/122/63 62/133/62 70/134/70 71/123/71 
f 65/135/65 64/121/64 72/124/72 73/136/73 
f 67/130/67 66/137/66 74/138/74 75/131/75 
f 61/139/61 68/129/68 76/132/76 69/140/69 
f 77/141/77 78/142/78 79/143/79 80/144/80 
f 70/120/70 69/119/69 77/141/77 80/144/80 
f 69/140/69 76/132/76 77/141/77 
f 76/132/76 75/131/75 78/142/78 77/141/77 
f 75/131/75 74/138/74 78/142/78 
f 74/128/74 73/127/73 79/143/79 78/142/78 
f 73/136/73 72/124/72 79/143/79 
f 72/124/72 71/123/71 80/144/80 79/143/79 
f 71/123/71 70/134/70 80/144/80 
# 34 polygons - 8 triangles

