# 3ds Max Wavefront OBJ Exporter v0.97b - (c)2007 guruware
# File Created: 12.05.2019 14:11:23

#
# object cardboar_box_010
#

v  5.8390 0.0000 4.5803
v  -5.8390 0.0000 4.5803
v  -5.8390 0.0000 -4.5803
v  5.8390 0.0000 -4.5803
v  5.8390 6.4606 -4.5803
v  -5.8390 6.4606 -4.5803
v  -5.8390 6.4606 4.5803
v  5.8390 6.4606 4.5803
v  5.8390 5.9564 5.5803
v  -5.8390 5.9564 5.5803
v  -5.8390 0.3347 5.5803
v  5.8390 0.3347 5.5803
v  6.4281 5.9564 -4.5803
v  6.4281 5.9564 4.5803
v  6.4281 0.3347 4.5803
v  6.4281 0.3347 -4.5803
v  -5.8390 5.9564 -5.5803
v  5.8390 5.9564 -5.5803
v  5.8390 0.3347 -5.5803
v  -5.8390 0.3347 -5.5803
v  -6.4281 5.9564 4.5803
v  -6.4281 5.9564 -4.5803
v  -6.4281 0.3347 -4.5803
v  -6.4281 0.3347 4.5803
# 24 vertices

vn 0.2469 -0.9570 0.1525
vn -0.2469 -0.9570 0.1525
vn -0.2469 -0.9570 -0.1525
vn 0.2469 -0.9570 -0.1525
vn 0.3262 0.9214 -0.2113
vn -0.3261 0.9214 -0.2113
vn -0.3261 0.9214 0.2113
vn 0.3262 0.9214 0.2113
vn 0.4208 0.4492 0.7881
vn -0.4208 0.4492 0.7881
vn -0.4119 -0.5014 0.7609
vn 0.4119 -0.5014 0.7609
vn 0.8917 0.3880 -0.2331
vn 0.8917 0.3880 0.2331
vn 0.8564 -0.4650 0.2245
vn 0.8564 -0.4650 -0.2245
vn -0.4208 0.4492 -0.7881
vn 0.4208 0.4492 -0.7881
vn 0.4119 -0.5014 -0.7609
vn -0.4119 -0.5014 -0.7609
vn -0.8917 0.3879 0.2331
vn -0.8917 0.3879 -0.2331
vn -0.8564 -0.4650 -0.2245
vn -0.8564 -0.4650 0.2245
# 24 vertex normals

vt 0.3576 0.4812 0.0000
vt 0.4327 0.4812 0.0000
vt 0.4327 0.5401 0.0000
vt 0.3576 0.5401 0.0000
vt 0.5514 0.5401 0.0000
vt 0.4763 0.5401 0.0000
vt 0.4763 0.4812 0.0000
vt 0.5514 0.4812 0.0000
vt 0.5544 0.3273 0.0000
vt 0.4668 0.3273 0.0000
vt 0.4668 0.2939 0.0000
vt 0.5544 0.2939 0.0000
vt 0.3214 0.5401 0.0000
vt 0.3214 0.4812 0.0000
vt 0.3501 0.4812 0.0000
vt 0.3501 0.5401 0.0000
vt 0.6516 0.3405 0.0000
vt 0.5640 0.3405 0.0000
vt 0.5640 0.3070 0.0000
vt 0.6516 0.3070 0.0000
vt 0.4688 0.4812 0.0000
vt 0.4688 0.5401 0.0000
vt 0.4401 0.5401 0.0000
vt 0.4401 0.4812 0.0000
vt 0.4401 0.4738 0.0000
vt 0.4329 0.4793 0.0000
vt 0.3573 0.4793 0.0000
vt 0.3501 0.4738 0.0000
vt 0.4329 0.5421 0.0000
vt 0.4401 0.5476 0.0000
vt 0.3501 0.5476 0.0000
vt 0.3573 0.5421 0.0000
vt 0.8287 0.9886 0.0000
vt 0.8216 0.9941 0.0000
vt 0.8216 0.9867 0.0000
vt 0.7640 0.9878 0.0000
vt 0.7640 0.9951 0.0000
vt 0.7569 0.9897 0.0000
vt 0.7635 0.9867 0.0000
vt 0.7635 0.9941 0.0000
vt 0.7564 0.9886 0.0000
vt 0.8293 0.9897 0.0000
vt 0.8222 0.9951 0.0000
vt 0.8222 0.9878 0.0000
vt 0.5640 0.2964 0.0000
vt 0.6516 0.2964 0.0000
vt 0.4668 0.2833 0.0000
vt 0.5544 0.2833 0.0000
vt 0.5544 0.3380 0.0000
vt 0.4668 0.3380 0.0000
vt 0.6516 0.3511 0.0000
vt 0.5640 0.3511 0.0000
vt 0.3214 0.4738 0.0000
vt 0.4688 0.4738 0.0000
vt 0.3214 0.5476 0.0000
vt 0.4688 0.5476 0.0000
# 56 texture coords

o cardboar_box_010
g cardboar_box_010
s 1
f 1/1/1 2/2/2 3/3/3 4/4/4 
f 5/5/5 6/6/6 7/7/7 8/8/8 
f 9/9/9 10/10/10 11/11/11 12/12/12 
f 13/13/13 14/14/14 15/15/15 16/16/16 
f 17/17/17 18/18/18 19/19/19 20/20/20 
f 21/21/21 22/22/22 23/23/23 24/24/24 
f 11/25/11 24/24/24 2/26/2 
f 1/27/1 15/15/15 12/28/12 
f 3/29/3 23/23/23 20/30/20 
f 19/31/19 16/16/16 4/32/4 
f 10/33/10 7/34/7 21/35/21 
f 14/36/14 8/37/8 9/38/9 
f 22/39/22 6/40/6 17/41/17 
f 18/42/18 5/43/5 13/44/13 
f 19/19/19 4/45/4 3/46/3 20/20/20 
f 15/15/15 1/1/1 4/4/4 16/16/16 
f 11/11/11 2/47/2 1/48/1 12/12/12 
f 9/9/9 8/49/8 7/50/7 10/10/10 
f 17/17/17 6/51/6 5/52/5 18/18/18 
f 21/35/21 7/34/7 6/40/6 22/39/22 
f 14/14/14 9/53/9 12/28/12 15/15/15 
f 24/24/24 11/25/11 10/54/10 21/21/21 
f 18/55/18 13/13/13 16/16/16 19/31/19 
f 22/22/22 17/56/17 20/30/20 23/23/23 
f 23/23/23 3/3/3 2/2/2 24/24/24 
f 13/44/13 5/43/5 8/37/8 14/36/14 
# 18 polygons - 8 triangles

